<?xml version="1.0" encoding="UTF-8"?>
<svg width="20px" height="20px" viewBox="0 0 20 20" version="1.1" xmlns="http://www.w3.org/2000/svg" xmlns:xlink="http://www.w3.org/1999/xlink">
    <!-- Generator: Sketch 47.1 (45422) - http://www.bohemiancoding.com/sketch -->
    <title>Twitter</title>
    <desc>Created with Sketch.</desc>
    <defs></defs>
    <g id="gem-website-01-interim" stroke="none" stroke-width="1" fill="none" fill-rule="evenodd">
        <g id="01-gem.co-home-teaser" transform="translate(-50.000000, -954.000000)">
            <g id="3-footer" transform="translate(50.000000, 954.000000)">
                <g id="social">
                    <g id="Twitter">
                        <circle id="Oval-1" fill="#BDBDBD" cx="10" cy="10" r="10"></circle>
                        <path d="M14.9377524,6.42518095 C14.6554984,6.6059746 14.0074476,6.86869206 13.6878476,6.86869206 L13.6878476,6.86923175 C13.3229143,6.488 12.8091365,6.25 12.2393397,6.25 C11.1326667,6.25 10.2352825,7.14738413 10.2352825,8.2536254 C10.2352825,8.40732698 10.2530921,8.55725079 10.2860127,8.70102222 L10.2856889,8.70102222 C8.78450794,8.6616254 7.14268571,7.9092 6.15431111,6.62140952 C5.54662857,7.67325079 6.07249524,8.84306667 6.76210159,9.26930794 C6.52604444,9.28711746 6.09149206,9.24210794 5.88695238,9.04253333 C5.87324444,9.74066667 6.20892698,10.6656825 7.43292698,11.0012571 C7.19719365,11.1280825 6.77991111,11.0917079 6.59846984,11.0647238 C6.66215238,11.6540571 7.48743492,12.4245079 8.38989206,12.4245079 C8.06824127,12.7965651 6.85805714,13.4713841 5.5,13.2566984 C6.42231746,13.8178603 7.49725714,14.1428571 8.63501587,14.1428571 C11.868254,14.1428571 14.379181,11.5224825 14.2440444,8.28989206 C14.2435048,8.28633016 14.2435048,8.28276825 14.243181,8.27888254 C14.2435048,8.27057143 14.2440444,8.26226032 14.2440444,8.2536254 C14.2440444,8.2435873 14.243181,8.23408889 14.2428571,8.2243746 C14.5372,8.02307302 14.9321397,7.66699048 15.2142857,7.19833016 C15.050654,7.28845714 14.5597587,7.46892698 14.1029714,7.51372063 C14.396127,7.35548571 14.8304635,6.83728254 14.9377524,6.42518095" id="Fill-1" fill="#FFFFFF"></path>
                    </g>
                </g>
            </g>
        </g>
    </g>
</svg>