<svg xmlns="http://www.w3.org/2000/svg" viewBox="0 0 1565 499.88"><defs><style>.cls-1{fill:#424242;}.cls-2{fill:#221f1f;}.cls-3{fill:#f8ba2b;}.cls-4{fill:#f78c1f;}.cls-5{fill:#feed58;}.cls-6{fill:#d4e05a;}.cls-7{fill:#36c2d6;}.cls-8{fill:#57a0d7;}.cls-9{fill:#ba68c8;}.cls-10{fill:#ec417a;}.cls-11{fill:#ef5451;}.cls-12{fill:#faa629;}.cls-13{fill:#fdd837;}.cls-14{fill:#c0ca33;}.cls-15{fill:#00acc1;}.cls-16{fill:#3d82c4;}.cls-17{fill:#9c27b0;}.cls-18{fill:#d81b61;}.cls-19{fill:#e53a35;}.cls-20{fill:#cedc38;}.cls-21{fill:#0bbcd4;}.cls-22{fill:#478fcc;}.cls-23{fill:#ab47bc;}.cls-24{fill:#e81f64;}.cls-25{fill:#f1592b;}.cls-26{fill:#ef4438;}.cls-27{fill:#f8981d;}.cls-28{fill:#feea3a;}</style></defs><title>Asset 5</title><g id="Layer_2" data-name="Layer 2"><g id="Layer_1-2" data-name="Layer 1"><path class="cls-1" d="M902.27,201.66c-4.05-11.71-9.46-23.87-22.52-38.73A125.14,125.14,0,0,0,858.14,144c-16.21-11.26-41.43-19.37-68.9-19.37-24.77,0-46.84,5.85-66.65,18.46s-35.13,28.82-45.94,49.54c-10.81,20.27-16.21,42.33-16.21,66.65,0,36.93,12.61,71.15,34.23,95.92,22.07,24.77,56.29,40.08,95,40.08,29.27,0,57.19-9.46,78.36-25.67s35.58-42.33,37.38-72.51H768.52v-32H942.35v12.61c0,41.43-14.86,78.81-40.53,105.83-26.12,27-66.2,43.68-112.59,43.68-49.09,0-91.87-18-119.79-47.74s-44.58-72.06-44.58-118.44c0-31.08,7.21-59.9,21.62-85.57a160.56,160.56,0,0,1,59.45-60.8c25.22-14.86,53.59-22.07,84.22-22.07,38.73,0,73,10.81,96.37,29.72,23.87,18.46,39.63,41,48.64,67.55Z"/><path class="cls-1" d="M1008.52,322.35c1.35,22.07,9.46,40.08,24.77,54.49,15.31,14.86,33.78,22.07,55.39,22.07,33.78,0,59-16.66,69.35-47.74l28.82,9q-9.46,31.75-36.48,50a109.9,109.9,0,0,1-61.25,18A112.45,112.45,0,0,1,1031,412.42a104.78,104.78,0,0,1-40.53-42.33Q975.65,343.75,975.65,312a117.64,117.64,0,0,1,14-56.74c9-18,22.07-32,39.18-42.78a101.14,101.14,0,0,1,55.84-16.21c22.07,0,41.43,5,57.64,15.31a90.84,90.84,0,0,1,36,41c8.11,17.11,11.71,36.48,11.71,59,0,2.25,0,5.85-.45,10.81Zm148.62-27.92c-2.25-20.72-9.91-37.38-22.52-50.44q-18.91-18.92-50-18.91c-19.37,0-35.58,6.76-50,20.27-14.41,14-23,30.17-25.67,49.09Z"/><path class="cls-1" d="M1380.36,424.13V292.63c0-19.37-5-35.58-14.41-48.19C1356,232.28,1341.63,226,1322.71,226s-34.23,6.76-45.49,20.72-16.66,30.62-16.66,50V424.13h-32.88V200.31h32V239c19.36-28.82,40.53-42.78,72.51-42.78,32.43,0,58.1,15.76,71.61,45,18.91-30.17,45.49-45,78.81-45,26.12,0,46.39,8.11,61.25,24.77,14,16.21,21.17,37.83,21.17,64.85V424.13h-32.43V294c0-20.27-4.5-36.48-14.41-49.09-9.46-12.16-23.87-18.92-43.68-18.92-18.91,0-33.78,6.76-45,20.27-11.26,13.06-17.11,29.72-17.11,49.09v128.8Z"/><polygon class="cls-2" points="426.55 426.81 426.55 426.8 426.55 426.81 426.55 426.81"/><path class="cls-2" d="M73.28,426.75h0Z"/><polygon class="cls-2" points="426.84 73.37 426.83 73.37 426.84 73.37 426.84 73.37"/><polygon class="cls-2" points="72.81 73.6 72.81 73.62 72.83 73.6 72.81 73.6"/><polygon class="cls-3" points="175.36 69.88 151.84 151.84 249.94 111.17 175.36 69.88"/><path class="cls-2" d="M249.94,388.72"/><polygon class="cls-2" points="426.55 426.81 426.55 426.8 426.55 426.81 426.55 426.81"/><path class="cls-2" d="M73.28,426.75h0Z"/><polygon class="cls-2" points="426.84 73.37 426.83 73.37 426.84 73.37 426.84 73.37"/><polygon class="cls-2" points="72.81 73.6 72.81 73.62 72.83 73.6 72.81 73.6"/><polygon class="cls-4" points="175.36 69.88 151.84 151.84 249.94 111.17 175.36 69.88"/><path class="cls-5" d="M345.64,19a249.15,249.15,0,0,0-95.7-19l74.58,69.88Z"/><path class="cls-6" d="M426.83,73.37A250.33,250.33,0,0,0,345.64,19L324.52,69.88Z"/><path class="cls-6" d="M480.89,154.3a250.26,250.26,0,0,0-54.05-80.92L430,175.18Z"/><path class="cls-7" d="M430,175.35l69.87,74.59a249.08,249.08,0,0,0-19-95.64L430,175.18Z"/><path class="cls-7" d="M430,324.53l50.88,21a249.11,249.11,0,0,0,19-95.62Z"/><path class="cls-8" d="M426.55,426.8a250.19,250.19,0,0,0,54.35-81.24l-50.88-21Z"/><path class="cls-8" d="M345.81,480.8a250.26,250.26,0,0,0,80.74-54l-102,3.21Z"/><path class="cls-9" d="M249.94,499.88a249.15,249.15,0,0,0,95.87-19.08L324.53,430Z"/><path class="cls-9" d="M154.38,480.93a249.16,249.16,0,0,0,95.56,19L175.35,430Z"/><path class="cls-10" d="M73.28,426.75a250.39,250.39,0,0,0,81.1,54.18l21-50.91Z"/><path class="cls-10" d="M18.53,344.42a250.28,250.28,0,0,0,54.75,82.33L69.86,324.54Z"/><path class="cls-11" d="M0,249.94a249.13,249.13,0,0,0,18.53,94.48l51.33-19.89Z"/><path class="cls-11" d="M19,154.21A249.14,249.14,0,0,0,0,249.94l69.85-74.57Z"/><path class="cls-12" d="M69.86,175.35,72.81,73.62A250.25,250.25,0,0,0,19,154.21l50.82,21.16Z"/><path class="cls-12" d="M154.24,19A250.33,250.33,0,0,0,72.83,73.6l102.53-3.73Z"/><path class="cls-5" d="M249.94,0a249.11,249.11,0,0,0-95.7,19l21.12,50.86Z"/><polygon class="cls-13" points="324.52 69.88 249.94 111.17 348.05 151.83 324.52 69.88"/><polygon class="cls-14" points="430.02 175.35 348.05 151.83 388.72 249.94 430.02 175.35"/><polygon class="cls-15" points="348.06 348.06 430.02 324.53 388.72 249.94 348.06 348.06"/><polygon class="cls-16" points="324.53 430.01 348.06 348.06 249.94 388.72 324.53 430.01"/><polygon class="cls-17" points="151.83 348.05 175.35 430.02 249.94 388.72 249.94 388.72 151.83 348.05"/><polygon class="cls-18" points="69.86 324.53 151.83 348.05 111.17 249.94 69.86 324.53"/><polygon class="cls-19" points="69.86 175.35 111.17 249.94 151.84 151.84 69.86 175.35"/><polygon class="cls-20" points="348.05 151.83 430.01 175.35 430.01 175.18 429.77 175.28 430.01 175.18 426.84 73.37 426.83 73.37 324.52 69.88 348.05 151.83"/><polygon class="cls-21" points="388.72 249.94 430.02 324.53 499.88 249.94 430.02 175.35 388.72 249.94"/><polygon class="cls-22" points="348.06 348.06 324.53 430.01 426.55 426.81 426.55 426.8 430.02 324.53 348.06 348.06"/><polygon class="cls-23" points="249.94 388.72 249.94 388.72 175.35 430.02 249.94 499.88 324.53 430.01 249.94 388.72"/><polygon class="cls-24" points="151.83 348.05 69.86 324.53 73.28 426.75 73.28 426.75 175.35 430.02 151.83 348.05"/><polygon class="cls-25" points="111.17 249.94 69.86 175.35 69.84 175.37 69.86 175.38 69.84 175.37 0 249.94 69.86 324.53 111.17 249.94"/><polygon class="cls-25" points="111.17 249.94 69.86 175.35 69.84 175.37 69.86 175.38 69.84 175.37 0 249.94 69.86 324.53 111.17 249.94"/><polygon class="cls-26" points="111.17 249.94 69.86 175.35 69.84 175.37 69.86 175.38 69.84 175.37 0 249.94 69.86 324.53 111.17 249.94"/><polygon class="cls-26" points="111.17 249.94 69.86 175.35 69.84 175.37 69.86 175.38 69.84 175.37 0 249.94 69.86 324.53 111.17 249.94"/><polygon class="cls-27" points="151.84 151.84 175.36 69.88 72.83 73.6 72.82 73.62 69.86 175.35 151.84 151.84"/><polygon class="cls-28" points="249.94 111.17 324.52 69.88 249.94 0 175.36 69.88 249.94 111.17"/><polygon class="cls-2" points="426.55 426.81 426.55 426.8 426.55 426.81 426.55 426.81"/><path class="cls-2" d="M73.28,426.75h0Z"/><polygon class="cls-2" points="426.84 73.37 426.83 73.37 426.84 73.37 426.84 73.37"/><polygon class="cls-2" points="72.81 73.6 72.81 73.62 72.83 73.6 72.81 73.6"/><polygon class="cls-3" points="175.36 69.88 151.84 151.84 249.94 111.17 175.36 69.88"/><path class="cls-2" d="M249.94,388.72"/><polygon class="cls-2" points="426.55 426.81 426.55 426.8 426.55 426.81 426.55 426.81"/><path class="cls-2" d="M73.28,426.75h0Z"/><polygon class="cls-2" points="426.84 73.37 426.83 73.37 426.84 73.37 426.84 73.37"/><polygon class="cls-2" points="72.81 73.6 72.81 73.62 72.83 73.6 72.81 73.6"/><polygon class="cls-4" points="175.36 69.88 151.84 151.84 249.94 111.17 175.36 69.88"/><path class="cls-5" d="M345.64,19a249.15,249.15,0,0,0-95.7-19l74.58,69.88Z"/><path class="cls-6" d="M426.83,73.37A250.33,250.33,0,0,0,345.64,19L324.52,69.88Z"/><path class="cls-6" d="M480.89,154.3a250.26,250.26,0,0,0-54.05-80.92L430,175.18Z"/><path class="cls-7" d="M430,175.35l69.87,74.59a249.08,249.08,0,0,0-19-95.64L430,175.18Z"/><path class="cls-7" d="M430,324.53l50.88,21a249.11,249.11,0,0,0,19-95.62Z"/><path class="cls-8" d="M426.55,426.8a250.19,250.19,0,0,0,54.35-81.24l-50.88-21Z"/><path class="cls-8" d="M345.81,480.8a250.26,250.26,0,0,0,80.74-54l-102,3.21Z"/><path class="cls-9" d="M249.94,499.88a249.15,249.15,0,0,0,95.87-19.08L324.53,430Z"/><path class="cls-9" d="M154.38,480.93a249.16,249.16,0,0,0,95.56,19L175.35,430Z"/><path class="cls-10" d="M73.28,426.75a250.39,250.39,0,0,0,81.1,54.18l21-50.91Z"/><path class="cls-10" d="M18.53,344.42a250.28,250.28,0,0,0,54.75,82.33L69.86,324.54Z"/><path class="cls-11" d="M0,249.94a249.13,249.13,0,0,0,18.53,94.48l51.33-19.89Z"/><path class="cls-11" d="M19,154.21A249.14,249.14,0,0,0,0,249.94l69.85-74.57Z"/><path class="cls-12" d="M69.86,175.35,72.81,73.62A250.25,250.25,0,0,0,19,154.21l50.82,21.16Z"/><path class="cls-12" d="M154.24,19A250.33,250.33,0,0,0,72.83,73.6l102.53-3.73Z"/><path class="cls-5" d="M249.94,0a249.11,249.11,0,0,0-95.7,19l21.12,50.86Z"/><polygon class="cls-13" points="324.52 69.88 249.94 111.17 348.05 151.83 324.52 69.88"/><polygon class="cls-14" points="430.02 175.35 348.05 151.83 388.72 249.94 430.02 175.35"/><polygon class="cls-15" points="348.06 348.06 430.02 324.53 388.72 249.94 348.06 348.06"/><polygon class="cls-16" points="324.53 430.01 348.06 348.06 249.94 388.72 324.53 430.01"/><polygon class="cls-17" points="151.83 348.05 175.35 430.02 249.94 388.72 249.94 388.72 151.83 348.05"/><polygon class="cls-18" points="69.86 324.53 151.83 348.05 111.17 249.94 69.86 324.53"/><polygon class="cls-19" points="69.86 175.35 111.17 249.94 151.84 151.84 69.86 175.35"/><polygon class="cls-20" points="348.05 151.83 430.01 175.35 430.01 175.18 429.77 175.28 430.01 175.18 426.84 73.37 426.83 73.37 324.52 69.88 348.05 151.83"/><polygon class="cls-21" points="388.72 249.94 430.02 324.53 499.88 249.94 430.02 175.35 388.72 249.94"/><polygon class="cls-22" points="348.06 348.06 324.53 430.01 426.55 426.81 426.55 426.8 430.02 324.53 348.06 348.06"/><polygon class="cls-23" points="249.94 388.72 249.94 388.72 175.35 430.02 249.94 499.88 324.53 430.01 249.94 388.72"/><polygon class="cls-24" points="151.83 348.05 69.86 324.53 73.28 426.75 73.28 426.75 175.35 430.02 151.83 348.05"/><polygon class="cls-25" points="111.17 249.94 69.86 175.35 69.84 175.37 69.86 175.38 69.84 175.37 0 249.94 69.86 324.53 111.17 249.94"/><polygon class="cls-25" points="111.17 249.94 69.86 175.35 69.84 175.37 69.86 175.38 69.84 175.37 0 249.94 69.86 324.53 111.17 249.94"/><polygon class="cls-26" points="111.17 249.94 69.86 175.35 69.84 175.37 69.86 175.38 69.84 175.37 0 249.94 69.86 324.53 111.17 249.94"/><polygon class="cls-26" points="111.17 249.94 69.86 175.35 69.84 175.37 69.86 175.38 69.84 175.37 0 249.94 69.86 324.53 111.17 249.94"/><polygon class="cls-27" points="151.84 151.84 175.36 69.88 72.83 73.6 72.82 73.62 69.86 175.35 151.84 151.84"/><polygon class="cls-28" points="249.94 111.17 324.52 69.88 249.94 0 175.36 69.88 249.94 111.17"/></g></g></svg>