<svg xmlns="http://www.w3.org/2000/svg" viewBox="0 0 1024 1024"><defs><style>.cls-1{fill:#fff;}.cls-2{fill:#221f1f;}.cls-3{fill:#f8ba2b;}.cls-4{fill:#f78c1f;}.cls-5{fill:#feed58;}.cls-6{fill:#d4e05a;}.cls-7{fill:#36c2d6;}.cls-8{fill:#57a0d7;}.cls-9{fill:#ba68c8;}.cls-10{fill:#ec417a;}.cls-11{fill:#ef5451;}.cls-12{fill:#faa629;}.cls-13{fill:#fdd837;}.cls-14{fill:#c0ca33;}.cls-15{fill:#00acc1;}.cls-16{fill:#3d82c4;}.cls-17{fill:#9c27b0;}.cls-18{fill:#d81b61;}.cls-19{fill:#e53a35;}.cls-20{fill:#cedc38;}.cls-21{fill:#0bbcd4;}.cls-22{fill:#478fcc;}.cls-23{fill:#ab47bc;}.cls-24{fill:#e81f64;}.cls-25{fill:#f1592b;}.cls-26{fill:#ef4438;}.cls-27{fill:#f8981d;}.cls-28{fill:#feea3a;}</style></defs><title>Asset 1</title><g id="Layer_2" data-name="Layer 2"><g id="Layer_1-2" data-name="Layer 1"><rect class="cls-1" width="1024" height="1024"/><polygon class="cls-2" points="746.66 747.58 746.66 747.57 746.66 747.58 746.66 747.58"/><path class="cls-2" d="M276.32,747.5Z"/><polygon class="cls-2" points="747.05 277.01 747.03 277.01 747.05 277.01 747.05 277.01"/><polygon class="cls-2" points="275.7 277.32 275.7 277.35 275.72 277.32 275.7 277.32"/><polygon class="cls-3" points="412.23 272.37 380.92 381.49 511.52 327.34 412.23 272.37"/><path class="cls-2" d="M511.53,696.87"/><polygon class="cls-2" points="746.66 747.58 746.66 747.57 746.66 747.58 746.66 747.58"/><path class="cls-2" d="M276.32,747.5Z"/><polygon class="cls-2" points="747.05 277.01 747.03 277.01 747.05 277.01 747.05 277.01"/><polygon class="cls-2" points="275.7 277.32 275.7 277.35 275.72 277.32 275.7 277.32"/><polygon class="cls-4" points="412.23 272.37 380.92 381.49 511.52 327.34 412.23 272.37"/><path class="cls-5" d="M638.94,204.63a331.71,331.71,0,0,0-127.41-25.3l99.29,93Z"/><path class="cls-6" d="M747,277a333.29,333.29,0,0,0-108.1-72.39l-28.12,67.74Z"/><path class="cls-6" d="M819,384.76A333.19,333.19,0,0,0,747,277l4.21,135.54Z"/><path class="cls-7" d="M751.25,412.79l93,99.31A331.62,331.62,0,0,0,819,384.76l-67.73,27.8Z"/><path class="cls-7" d="M751.25,611.4l67.74,28a331.66,331.66,0,0,0,25.3-127.31Z"/><path class="cls-8" d="M746.66,747.57A333.1,333.1,0,0,0,819,639.4l-67.74-28Z"/><path class="cls-8" d="M639.16,819.46a333.19,333.19,0,0,0,107.5-71.89l-135.8,4.27Z"/><path class="cls-9" d="M511.53,844.86a331.71,331.71,0,0,0,127.64-25.4l-28.33-67.63Z"/><path class="cls-9" d="M384.3,819.63a331.73,331.73,0,0,0,127.23,25.3l-99.31-93.1Z"/><path class="cls-10" d="M276.32,747.5a333.37,333.37,0,0,0,108,72.13l28-67.78Z"/><path class="cls-10" d="M203.43,637.89A333.22,333.22,0,0,0,276.32,747.5l-4.55-136.08Z"/><path class="cls-11" d="M178.76,512.1a331.69,331.69,0,0,0,24.67,125.79l68.34-26.48Z"/><path class="cls-11" d="M204.05,384.64a331.7,331.7,0,0,0-25.3,127.45l93-99.28Z"/><path class="cls-12" d="M271.77,412.79l3.93-135.44a333.18,333.18,0,0,0-71.64,107.3l67.66,28.17Z"/><path class="cls-12" d="M384.11,204.63a333.29,333.29,0,0,0-108.39,72.69l136.51-5Z"/><path class="cls-5" d="M511.53,179.33a331.66,331.66,0,0,0-127.41,25.3l28.12,67.71Z"/><polygon class="cls-13" points="610.82 272.37 511.52 327.34 642.15 381.47 610.82 272.37"/><polygon class="cls-14" points="751.28 412.79 642.15 381.47 696.29 512.1 751.28 412.79"/><polygon class="cls-15" points="642.16 642.73 751.28 611.4 696.29 512.1 642.16 642.73"/><polygon class="cls-16" points="610.83 751.84 642.16 642.73 511.52 696.87 610.83 751.84"/><polygon class="cls-17" points="380.9 642.72 412.22 751.85 511.52 696.87 511.52 696.87 380.9 642.72"/><polygon class="cls-18" points="271.77 611.4 380.9 642.72 326.77 512.1 271.77 611.4"/><polygon class="cls-19" points="271.77 412.79 326.77 512.1 380.92 381.49 271.77 412.79"/><polygon class="cls-20" points="642.15 381.47 751.27 412.79 751.27 412.56 750.95 412.69 751.27 412.56 747.05 277.01 747.03 277.01 610.82 272.37 642.15 381.47"/><polygon class="cls-21" points="696.29 512.1 751.28 611.4 844.29 512.1 751.28 412.79 696.29 512.1"/><polygon class="cls-22" points="642.16 642.73 610.83 751.84 746.66 747.58 746.66 747.57 751.28 611.4 642.16 642.73"/><polygon class="cls-23" points="511.52 696.87 511.52 696.87 412.22 751.85 511.52 844.86 610.83 751.84 511.52 696.87"/><polygon class="cls-24" points="380.9 642.72 271.77 611.4 276.32 747.5 276.32 747.5 412.22 751.85 380.9 642.72"/><polygon class="cls-25" points="326.77 512.1 271.77 412.79 271.74 412.81 271.77 412.83 271.74 412.81 178.76 512.1 271.77 611.4 326.77 512.1"/><polygon class="cls-25" points="326.77 512.1 271.77 412.79 271.74 412.81 271.77 412.83 271.74 412.81 178.76 512.1 271.77 611.4 326.77 512.1"/><polygon class="cls-26" points="326.77 512.1 271.77 412.79 271.74 412.81 271.77 412.83 271.74 412.81 178.76 512.1 271.77 611.4 326.77 512.1"/><polygon class="cls-26" points="326.77 512.1 271.77 412.79 271.74 412.81 271.77 412.83 271.74 412.81 178.76 512.1 271.77 611.4 326.77 512.1"/><polygon class="cls-27" points="380.92 381.49 412.23 272.37 275.72 277.32 275.71 277.35 271.77 412.79 380.92 381.49"/><polygon class="cls-28" points="511.52 327.34 610.82 272.37 511.52 179.33 412.23 272.37 511.52 327.34"/><polygon class="cls-2" points="746.66 747.58 746.66 747.57 746.66 747.58 746.66 747.58"/><path class="cls-2" d="M276.32,747.5Z"/><polygon class="cls-2" points="747.05 277.01 747.03 277.01 747.05 277.01 747.05 277.01"/><polygon class="cls-2" points="275.7 277.32 275.7 277.35 275.72 277.32 275.7 277.32"/><polygon class="cls-3" points="412.23 272.37 380.92 381.49 511.52 327.34 412.23 272.37"/><path class="cls-2" d="M511.53,696.87"/><polygon class="cls-2" points="746.66 747.58 746.66 747.57 746.66 747.58 746.66 747.58"/><path class="cls-2" d="M276.32,747.5Z"/><polygon class="cls-2" points="747.05 277.01 747.03 277.01 747.05 277.01 747.05 277.01"/><polygon class="cls-2" points="275.7 277.32 275.7 277.35 275.72 277.32 275.7 277.32"/><polygon class="cls-4" points="412.23 272.37 380.92 381.49 511.52 327.34 412.23 272.37"/><path class="cls-5" d="M638.94,204.63a331.71,331.71,0,0,0-127.41-25.3l99.29,93Z"/><path class="cls-6" d="M747,277a333.29,333.29,0,0,0-108.1-72.39l-28.12,67.74Z"/><path class="cls-6" d="M819,384.76A333.19,333.19,0,0,0,747,277l4.21,135.54Z"/><path class="cls-7" d="M751.25,412.79l93,99.31A331.62,331.62,0,0,0,819,384.76l-67.73,27.8Z"/><path class="cls-7" d="M751.25,611.4l67.74,28a331.66,331.66,0,0,0,25.3-127.31Z"/><path class="cls-8" d="M746.66,747.57A333.1,333.1,0,0,0,819,639.4l-67.74-28Z"/><path class="cls-8" d="M639.16,819.46a333.19,333.19,0,0,0,107.5-71.89l-135.8,4.27Z"/><path class="cls-9" d="M511.53,844.86a331.71,331.71,0,0,0,127.64-25.4l-28.33-67.63Z"/><path class="cls-9" d="M384.3,819.63a331.73,331.73,0,0,0,127.23,25.3l-99.31-93.1Z"/><path class="cls-10" d="M276.32,747.5a333.37,333.37,0,0,0,108,72.13l28-67.78Z"/><path class="cls-10" d="M203.43,637.89A333.22,333.22,0,0,0,276.32,747.5l-4.55-136.08Z"/><path class="cls-11" d="M178.76,512.1a331.69,331.69,0,0,0,24.67,125.79l68.34-26.48Z"/><path class="cls-11" d="M204.05,384.64a331.7,331.7,0,0,0-25.3,127.45l93-99.28Z"/><path class="cls-12" d="M271.77,412.79l3.93-135.44a333.18,333.18,0,0,0-71.64,107.3l67.66,28.17Z"/><path class="cls-12" d="M384.11,204.63a333.29,333.29,0,0,0-108.39,72.69l136.51-5Z"/><path class="cls-5" d="M511.53,179.33a331.66,331.66,0,0,0-127.41,25.3l28.12,67.71Z"/><polygon class="cls-13" points="610.82 272.37 511.52 327.34 642.15 381.47 610.82 272.37"/><polygon class="cls-14" points="751.28 412.79 642.15 381.47 696.29 512.1 751.28 412.79"/><polygon class="cls-15" points="642.16 642.73 751.28 611.4 696.29 512.1 642.16 642.73"/><polygon class="cls-16" points="610.83 751.84 642.16 642.73 511.52 696.87 610.83 751.84"/><polygon class="cls-17" points="380.9 642.72 412.22 751.85 511.52 696.87 511.52 696.87 380.9 642.72"/><polygon class="cls-18" points="271.77 611.4 380.9 642.72 326.77 512.1 271.77 611.4"/><polygon class="cls-19" points="271.77 412.79 326.77 512.1 380.92 381.49 271.77 412.79"/><polygon class="cls-20" points="642.15 381.47 751.27 412.79 751.27 412.56 750.95 412.69 751.27 412.56 747.05 277.01 747.03 277.01 610.82 272.37 642.15 381.47"/><polygon class="cls-21" points="696.29 512.1 751.28 611.4 844.29 512.1 751.28 412.79 696.29 512.1"/><polygon class="cls-22" points="642.16 642.73 610.83 751.84 746.66 747.58 746.66 747.57 751.28 611.4 642.16 642.73"/><polygon class="cls-23" points="511.52 696.87 511.52 696.87 412.22 751.85 511.52 844.86 610.83 751.84 511.52 696.87"/><polygon class="cls-24" points="380.9 642.72 271.77 611.4 276.32 747.5 276.32 747.5 412.22 751.85 380.9 642.72"/><polygon class="cls-25" points="326.77 512.1 271.77 412.79 271.74 412.81 271.77 412.83 271.74 412.81 178.76 512.1 271.77 611.4 326.77 512.1"/><polygon class="cls-25" points="326.77 512.1 271.77 412.79 271.74 412.81 271.77 412.83 271.74 412.81 178.76 512.1 271.77 611.4 326.77 512.1"/><polygon class="cls-26" points="326.77 512.1 271.77 412.79 271.74 412.81 271.77 412.83 271.74 412.81 178.76 512.1 271.77 611.4 326.77 512.1"/><polygon class="cls-26" points="326.77 512.1 271.77 412.79 271.74 412.81 271.77 412.83 271.74 412.81 178.76 512.1 271.77 611.4 326.77 512.1"/><polygon class="cls-27" points="380.92 381.49 412.23 272.37 275.72 277.32 275.71 277.35 271.77 412.79 380.92 381.49"/><polygon class="cls-28" points="511.52 327.34 610.82 272.37 511.52 179.33 412.23 272.37 511.52 327.34"/></g></g></svg>