<?xml version="1.0" encoding="utf-8"?>
<!-- Generator: Adobe Illustrator 21.0.2, SVG Export Plug-In . SVG Version: 6.00 Build 0)  -->
<svg version="1.1" id="Layer_1" xmlns="http://www.w3.org/2000/svg" xmlns:xlink="http://www.w3.org/1999/xlink" x="0px" y="0px"
	 viewBox="0 0 665.4 665.6" style="enable-background:new 0 0 665.4 665.6;" xml:space="preserve">
<style type="text/css">
	.st0{fill:#221F1F;}
	.st1{fill:#F8BA2B;}
	.st2{fill:#F78C1F;}
	.st3{fill:#FEED58;}
	.st4{fill:#D4E05A;}
	.st5{fill:#36C2D6;}
	.st6{fill:#57A0D7;}
	.st7{fill:#BA68C8;}
	.st8{fill:#EC417A;}
	.st9{fill:#EF5451;}
	.st10{fill:#FAA629;}
	.st11{fill:#FDD837;}
	.st12{fill:#C0CA33;}
	.st13{fill:#00ACC1;}
	.st14{fill:#3D82C4;}
	.st15{fill:#9C27B0;}
	.st16{fill:#D81B61;}
	.st17{fill:#E53A35;}
	.st18{fill:#CEDC38;}
	.st19{fill:#0BBCD4;}
	.st20{fill:#478FCC;}
	.st21{fill:#AB47BC;}
	.st22{fill:#E81F64;}
	.st23{fill:#F1592B;}
	.st24{fill:#EF4438;}
	.st25{fill:#F8981D;}
	.st26{fill:#FEEA3A;}
</style>
<title>Asset 1</title>
<path class="st0" d="M567.9,568.3L567.9,568.3L567.9,568.3z"/>
<path class="st0" d="M97.5,568.2"/>
<path class="st0" d="M568.2,97.7L568.2,97.7L568.2,97.7z"/>
<path class="st0" d="M96.9,98v0.1V98z"/>
<polygon class="st1" points="233.4,93.1 202.1,202.2 332.7,148 "/>
<path class="st0" d="M332.7,517.6"/>
<path class="st0" d="M567.9,568.3L567.9,568.3L567.9,568.3z"/>
<path class="st0" d="M97.5,568.2"/>
<path class="st0" d="M568.2,97.7L568.2,97.7L568.2,97.7z"/>
<path class="st0" d="M96.9,98v0.1V98z"/>
<polygon class="st2" points="233.4,93.1 202.1,202.2 332.7,148 "/>
<path class="st3" d="M460.1,25.3C419.7,8.6,376.4,0,332.7,0L432,93L460.1,25.3z"/>
<path class="st4" d="M568.2,97.7c-30.9-31-67.7-55.6-108.1-72.4L432,93L568.2,97.7z"/>
<path class="st4" d="M640.2,205.5c-16.7-40.3-41.2-76.9-72-107.8l4.2,135.5L640.2,205.5z"/>
<path class="st5" d="M572.4,233.5l93,99.3c0.1-43.7-8.5-87-25.2-127.3l-67.7,27.8L572.4,233.5z"/>
<path class="st5" d="M572.4,432.1l67.7,28c16.7-40.4,25.3-83.6,25.3-127.3L572.4,432.1z"/>
<path class="st6" d="M567.9,568.3c31-31,55.6-67.7,72.3-108.2l-67.7-28L567.9,568.3z"/>
<path class="st6" d="M460.4,640.2c40.2-16.7,76.7-41.1,107.5-71.9l-135.8,4.3L460.4,640.2z"/>
<path class="st7" d="M332.7,665.6c43.8,0,87.2-8.6,127.6-25.4L432,572.6L332.7,665.6z"/>
<path class="st7" d="M205.5,640.3c40.3,16.7,83.6,25.3,127.2,25.3l-99.3-93.1L205.5,640.3z"/>
<path class="st8" d="M97.5,568.2c30.9,30.9,67.6,55.4,108,72.1l28-67.8L97.5,568.2z"/>
<path class="st8" d="M24.6,458.6c16.8,41,41.5,78.3,72.9,109.6L93,432.1L24.6,458.6z"/>
<path class="st9" d="M0,332.8c0,43.1,8.3,85.9,24.7,125.8L93,432.1L0,332.8z"/>
<path class="st9" d="M25.3,205.3C8.5,245.7-0.1,289,0,332.8l93-99.3L25.3,205.3z"/>
<path class="st10" d="M93,233.5l3.9-135.4c-30.6,30.8-55,67.2-71.6,107.3L93,233.5L93,233.5z"/>
<path class="st10" d="M205.3,25.3C164.7,42.2,127.9,66.9,96.9,98l136.5-5L205.3,25.3z"/>
<path class="st3" d="M332.7,0c-43.7,0-87,8.6-127.4,25.3L233.4,93L332.7,0z"/>
<polygon class="st11" points="432,93.1 332.7,148 463.4,202.2 "/>
<polygon class="st12" points="572.5,233.5 463.4,202.2 517.5,332.8 "/>
<polygon class="st13" points="463.4,463.4 572.5,432.1 517.5,332.8 "/>
<polygon class="st14" points="432,572.5 463.4,463.4 332.7,517.6 "/>
<polygon class="st15" points="202.1,463.4 233.4,572.5 332.7,517.6 332.7,517.6 "/>
<polygon class="st16" points="93,432.1 202.1,463.4 148,332.8 "/>
<polygon class="st17" points="93,233.5 148,332.8 202.1,202.2 "/>
<polygon class="st18" points="463.4,202.2 572.5,233.5 572.5,233.3 572.2,233.4 572.5,233.3 568.2,97.7 568.2,97.7 432,93.1 "/>
<polygon class="st19" points="517.5,332.8 572.5,432.1 665.5,332.8 572.5,233.5 "/>
<polygon class="st20" points="463.4,463.4 432,572.5 567.9,568.3 567.9,568.3 572.5,432.1 "/>
<polygon class="st21" points="332.7,517.6 332.7,517.6 233.4,572.5 332.7,665.6 432,572.5 "/>
<polygon class="st22" points="202.1,463.4 93,432.1 97.5,568.2 97.5,568.2 233.4,572.5 "/>
<polygon class="st23" points="148,332.8 93,233.5 92.9,233.5 93,233.5 92.9,233.5 0,332.8 93,432.1 "/>
<polygon class="st23" points="148,332.8 93,233.5 92.9,233.5 93,233.5 92.9,233.5 0,332.8 93,432.1 "/>
<polygon class="st24" points="148,332.8 93,233.5 92.9,233.5 93,233.5 92.9,233.5 0,332.8 93,432.1 "/>
<polygon class="st24" points="148,332.8 93,233.5 92.9,233.5 93,233.5 92.9,233.5 0,332.8 93,432.1 "/>
<polygon class="st25" points="202.1,202.2 233.4,93.1 96.9,98 96.9,98.1 93,233.5 "/>
<polygon class="st26" points="332.7,148 432,93.1 332.7,0 233.4,93.1 "/>
<path class="st0" d="M567.9,568.3L567.9,568.3L567.9,568.3z"/>
<path class="st0" d="M97.5,568.2"/>
<path class="st0" d="M568.2,97.7L568.2,97.7L568.2,97.7z"/>
<path class="st0" d="M96.9,98v0.1V98z"/>
<polygon class="st1" points="233.4,93.1 202.1,202.2 332.7,148 "/>
<path class="st0" d="M332.7,517.6"/>
<path class="st0" d="M567.9,568.3L567.9,568.3L567.9,568.3z"/>
<path class="st0" d="M97.5,568.2"/>
<path class="st0" d="M568.2,97.7L568.2,97.7L568.2,97.7z"/>
<path class="st0" d="M96.9,98v0.1V98z"/>
<polygon class="st2" points="233.4,93.1 202.1,202.2 332.7,148 "/>
<path class="st3" d="M460.1,25.3C419.7,8.6,376.4,0,332.7,0L432,93L460.1,25.3z"/>
<path class="st4" d="M568.2,97.7c-30.9-31-67.7-55.6-108.1-72.4L432,93L568.2,97.7z"/>
<path class="st4" d="M640.2,205.5c-16.7-40.3-41.2-76.9-72-107.8l4.2,135.5L640.2,205.5z"/>
<path class="st5" d="M572.4,233.5l93,99.3c0.1-43.7-8.5-87-25.2-127.3l-67.7,27.8L572.4,233.5z"/>
<path class="st5" d="M572.4,432.1l67.7,28c16.7-40.4,25.3-83.6,25.3-127.3L572.4,432.1z"/>
<path class="st6" d="M567.9,568.3c31-31,55.6-67.7,72.3-108.2l-67.7-28L567.9,568.3z"/>
<path class="st6" d="M460.4,640.2c40.2-16.7,76.7-41.1,107.5-71.9l-135.8,4.3L460.4,640.2z"/>
<path class="st7" d="M332.7,665.6c43.8,0,87.2-8.6,127.6-25.4L432,572.6L332.7,665.6z"/>
<path class="st7" d="M205.5,640.3c40.3,16.7,83.6,25.3,127.2,25.3l-99.3-93.1L205.5,640.3z"/>
<path class="st8" d="M97.5,568.2c30.9,30.9,67.6,55.4,108,72.1l28-67.8L97.5,568.2z"/>
<path class="st8" d="M24.6,458.6c16.8,41,41.5,78.3,72.9,109.6L93,432.1L24.6,458.6z"/>
<path class="st9" d="M0,332.8c0,43.1,8.3,85.9,24.7,125.8L93,432.1L0,332.8z"/>
<path class="st9" d="M25.3,205.3C8.5,245.7-0.1,289,0,332.8l93-99.3L25.3,205.3z"/>
<path class="st10" d="M93,233.5l3.9-135.4c-30.6,30.8-55,67.2-71.6,107.3L93,233.5L93,233.5z"/>
<path class="st10" d="M205.3,25.3C164.7,42.2,127.9,66.9,96.9,98l136.5-5L205.3,25.3z"/>
<path class="st3" d="M332.7,0c-43.7,0-87,8.6-127.4,25.3L233.4,93L332.7,0z"/>
<polygon class="st11" points="432,93.1 332.7,148 463.4,202.2 "/>
<polygon class="st12" points="572.5,233.5 463.4,202.2 517.5,332.8 "/>
<polygon class="st13" points="463.4,463.4 572.5,432.1 517.5,332.8 "/>
<polygon class="st14" points="432,572.5 463.4,463.4 332.7,517.6 "/>
<polygon class="st15" points="202.1,463.4 233.4,572.5 332.7,517.6 332.7,517.6 "/>
<polygon class="st16" points="93,432.1 202.1,463.4 148,332.8 "/>
<polygon class="st17" points="93,233.5 148,332.8 202.1,202.2 "/>
<polygon class="st18" points="463.4,202.2 572.5,233.5 572.5,233.3 572.2,233.4 572.5,233.3 568.2,97.7 568.2,97.7 432,93.1 "/>
<polygon class="st19" points="517.5,332.8 572.5,432.1 665.5,332.8 572.5,233.5 "/>
<polygon class="st20" points="463.4,463.4 432,572.5 567.9,568.3 567.9,568.3 572.5,432.1 "/>
<polygon class="st21" points="332.7,517.6 332.7,517.6 233.4,572.5 332.7,665.6 432,572.5 "/>
<polygon class="st22" points="202.1,463.4 93,432.1 97.5,568.2 97.5,568.2 233.4,572.5 "/>
<polygon class="st23" points="148,332.8 93,233.5 92.9,233.5 93,233.5 92.9,233.5 0,332.8 93,432.1 "/>
<polygon class="st23" points="148,332.8 93,233.5 92.9,233.5 93,233.5 92.9,233.5 0,332.8 93,432.1 "/>
<polygon class="st24" points="148,332.8 93,233.5 92.9,233.5 93,233.5 92.9,233.5 0,332.8 93,432.1 "/>
<polygon class="st24" points="148,332.8 93,233.5 92.9,233.5 93,233.5 92.9,233.5 0,332.8 93,432.1 "/>
<polygon class="st25" points="202.1,202.2 233.4,93.1 96.9,98 96.9,98.1 93,233.5 "/>
<polygon class="st26" points="332.7,148 432,93.1 332.7,0 233.4,93.1 "/>
</svg>
